<svg version="1.1" id="Layer_1" xmlns="http://www.w3.org/2000/svg" xmlns:xlink="http://www.w3.org/1999/xlink" x="0px" y="0px"
	 width="100%" viewBox="0 0 624 537" enable-background="new 0 0 624 537" xml:space="preserve">
<path xmlns="http://www.w3.org/2000/svg" fill="#0ea5e9" opacity="1.000000" stroke="none" d=" M625.000000,383.000000   C625.000000,387.024536 625.000000,391.049103 624.681458,395.707886   C620.938354,408.008057 613.315613,415.325317 601.658691,418.736816   C588.094666,422.706360 574.627563,427.007935 561.055603,430.949219   C557.931152,431.856506 556.868347,433.312073 556.925171,436.537689   C557.110107,447.032440 556.767029,457.539612 557.095947,468.027313   C557.245178,472.786621 555.841187,474.084137 550.994385,474.323059   C529.550842,475.380219 508.007751,475.961029 486.733032,478.592529   C437.475403,484.685181 390.459686,498.893951 345.963196,521.015625   C335.430725,526.251892 325.310089,532.316467 315.000000,538.000000   C314.250000,538.000000 313.500000,538.000000 312.154175,537.738037   C280.214935,519.333618 247.367722,504.586060 212.689941,494.069031   C167.934860,480.495819 122.066132,474.381042 75.370117,474.266907   C70.993568,474.256195 69.593948,473.088501 69.724068,468.647369   C70.031219,458.163910 69.704086,447.663269 69.886818,437.173950   C69.948608,433.627258 68.919662,431.844543 65.288223,430.823059   C53.772942,427.583862 42.513577,423.341461 30.894247,420.588715   C15.617821,416.969635 5.003629,409.082489 1.435718,393.217377   C1.413217,393.117310 1.150530,393.071259 1.000001,393.000000   C1.000000,390.629425 1.000000,388.258881 1.339203,385.288635   C3.499924,376.848206 7.153949,370.187347 13.430195,364.895325   C14.646194,363.870056 15.187768,360.964691 14.761002,359.243896   C11.620566,346.580811 14.527438,335.813873 24.396671,327.223480   C26.920546,325.026672 27.409969,323.018646 26.578094,319.852661   C20.522043,296.804230 40.309238,276.720917 63.497070,282.249817   C65.338089,282.688782 67.177536,283.134308 69.842430,283.775116   C69.842430,281.097809 69.842522,279.315308 69.842422,277.532806   C69.841698,264.708374 70.094589,251.876007 69.693710,239.064087   C69.564682,234.940475 68.429329,230.501541 66.538689,226.833466   C47.577644,190.046707 47.828793,153.484634 66.916016,116.838531   C68.599213,113.606911 69.693665,109.659813 69.717079,106.036346   C69.929054,73.227150 69.799881,40.415848 69.934204,7.605835   C69.943230,5.401108 71.280495,3.201819 72.000000,1.000000   C76.356903,1.000000 80.713799,1.000000 85.756104,1.373291   C87.432594,1.829801 88.422905,1.974812 89.414886,1.987287   C121.824165,2.394841 153.772247,6.575927 185.382278,13.606609   C228.521164,23.201544 269.300720,39.049572 308.123627,60.017841   C311.955780,62.087578 314.897491,61.817802 318.748291,59.985760   C338.100159,50.779037 357.239166,40.949974 377.163269,33.155205   C428.611298,13.027518 482.191040,2.964690 537.452698,1.957445   C538.640564,1.935793 539.817810,1.332148 541.000000,1.000000   C545.024536,1.000000 549.049072,1.000000 553.708374,1.349012   C555.229980,3.541173 556.881226,5.380723 556.889954,7.228012   C557.046082,40.392712 556.931580,73.558754 557.115234,106.723175   C557.133545,110.029709 558.116821,113.634079 559.648193,116.583015   C578.950317,153.752716 579.362732,190.783417 559.503174,227.897797   C558.080017,230.557510 557.167236,233.822495 557.113098,236.825775   C556.864014,250.654099 556.989563,264.489471 557.022522,278.322235   C557.026550,280.033905 557.280457,281.744995 557.437073,283.685455   C558.769714,283.460999 559.438965,283.455383 560.026794,283.233795   C583.154114,274.515961 607.449280,295.366577 600.054382,321.089783   C599.609619,322.636780 600.625671,325.393921 601.903259,326.520752   C612.083923,335.500061 615.100037,346.458954 611.929993,359.457275   C611.587402,360.862000 611.585571,363.265320 612.417847,363.895844   C618.912842,368.816711 622.457581,375.549225 625.000000,383.000000  M384.786072,482.268433   C418.218567,470.724152 452.299347,461.829559 487.523407,457.950592   C502.411591,456.311035 517.378845,455.349487 532.326904,454.323273   C535.750366,454.088196 537.124146,452.966644 536.903564,449.530701   C536.701172,446.377838 536.582458,443.170746 536.927551,440.042816   C537.462219,435.196533 535.733154,433.101013 530.786255,431.897980   C518.326965,428.867981 508.411072,421.724640 501.774017,410.649689   C499.560059,406.955383 496.939789,405.307770 492.716827,404.859711   C479.899902,403.499908 468.503876,398.136322 461.143677,387.740082   C455.746979,380.117310 449.833038,376.890991 440.814240,374.964996   C420.885468,370.709259 409.611542,356.638885 404.057556,337.433075   C402.806213,333.105835 403.517456,331.187714 407.925720,329.885468   C423.073883,325.410461 438.115234,320.575531 453.218964,315.948395   C479.452362,307.911530 505.714111,299.966553 531.918274,291.835815   C533.728027,291.274323 536.504700,289.544250 536.553345,288.270630   C536.936951,278.219574 536.766479,268.147369 536.766479,257.910187   C478.768311,299.100098 424.753418,294.750671 373.339844,246.033722   C353.603485,273.524353 333.770050,301.150208 313.401459,329.521484   C292.987366,301.090271 273.136871,273.443939 252.919128,245.286194   C231.452881,268.960938 205.734467,282.829102 174.324615,285.264069   C142.711487,287.714874 115.165199,277.630585 90.003319,256.832367   C90.003319,266.995636 90.223442,275.913086 89.908592,284.811584   C89.755753,289.131348 91.381302,290.920471 95.414543,292.139648   C134.890747,304.072296 174.340012,316.096619 213.726776,328.321014   C226.162430,332.180664 225.287415,329.327942 220.982986,342.380951   C214.316162,362.597900 197.083374,375.613190 175.998779,377.114868   C174.404999,377.228363 172.323257,378.560150 171.483017,379.942413   C162.587692,394.576172 149.830292,403.118591 132.758774,404.976318   C129.268768,405.356110 127.144073,407.023010 125.367760,410.025116   C119.949020,419.183411 112.123566,425.747192 102.397736,430.008759   C98.382469,431.768097 92.635483,432.248444 90.663002,435.264160   C88.584259,438.442352 90.390701,443.987030 89.914146,448.434998   C89.395203,453.278625 91.577415,454.060211 95.849297,454.427979   C116.573853,456.211853 137.429047,457.360443 157.934067,460.636322   C206.895721,468.458435 253.515991,483.888214 297.595184,506.759521   C299.166199,507.574707 300.820160,508.230133 303.171906,509.292847   C303.171906,506.637573 303.171906,504.697021 303.171906,502.756439   C303.171936,458.933258 303.171600,415.110107 303.173523,371.286926   C303.173584,369.787476 302.855835,368.173004 303.312225,366.823883   C303.698944,365.680847 304.955353,364.047485 305.891357,364.003479   C311.505157,363.739777 317.137604,363.872711 323.521118,363.872711   C323.521118,412.516418 323.521118,460.547485 323.521118,508.343811   C344.090027,499.597687 364.081635,491.097046 384.786072,482.268433  M372.000977,143.622604   C367.597992,156.636566 366.553680,170.039383 368.286621,183.548492   C376.530182,247.811462 444.110718,284.087097 502.381195,255.539139   C535.133118,239.493271 557.490784,201.884140 553.365051,162.561432   C548.709229,118.185844 510.129425,80.552467 465.554352,79.078949   C422.765076,77.664474 386.765625,102.271660 372.000977,143.622604  M176.067612,264.907684   C177.540863,264.635773 179.007675,264.321167 180.488297,264.098145   C233.673340,256.086090 269.186432,203.138763 256.456024,150.825317   C244.992996,103.719994 200.923157,73.506432 152.847427,80.008171   C117.632782,84.770576 83.373741,110.864052 74.507431,153.846451   C67.502823,187.803635 79.437683,225.319427 112.683449,248.790924   C131.384293,261.993713 152.444672,266.825806 176.067612,264.907684  M423.579285,39.009613   C390.386078,48.172314 358.902618,61.531387 328.415405,77.429329   C324.517487,79.461952 323.222382,81.847115 323.344879,86.002449   C323.585419,94.161697 323.319519,102.334709 323.458374,110.498703   C323.514893,113.820663 322.539307,115.452682 318.918488,115.217781   C315.267365,114.980904 311.575043,114.968224 307.926056,115.221550   C304.098633,115.487274 303.032471,113.826958 303.104614,110.242912   C303.278900,101.580078 303.368927,92.902466 303.002777,84.251572   C302.917358,82.234024 301.357117,79.254166 299.669250,78.484001   C276.986633,68.134109 254.585861,56.964195 231.279144,48.228149   C187.777435,31.922443 142.378815,24.257357 95.988190,22.233637   C90.992348,22.015699 89.806747,23.580050 89.887001,28.310390   C90.149887,43.805382 89.984970,59.307625 89.984566,74.807083   C89.984467,78.731499 89.984558,82.655922 89.984558,87.515381   C124.746544,60.084332 162.409958,50.892063 203.856277,65.864731   C245.175171,80.791351 268.811829,111.595589 278.145569,154.382919   C301.847595,140.963898 325.026276,141.002625 348.286896,154.025833   C357.520416,110.831566 381.574310,80.300484 422.849091,65.516853   C464.219177,50.699089 502.027954,59.702698 536.210999,87.193092   C536.488953,86.094414 536.770569,85.498749 536.771423,84.902672   C536.800354,65.403557 536.754456,45.904171 536.849304,26.405451   C536.867981,22.561968 534.825745,22.130608 531.720398,22.260838   C495.316986,23.787483 459.472961,28.890461 423.579285,39.009613  M356.895386,217.596466   C353.950043,206.546417 351.064117,195.479904 348.010986,184.459717   C347.373962,182.160507 346.632660,179.544098 345.069885,177.900757   C328.455658,160.429871 298.939484,160.127899 282.231323,177.256210   C280.520752,179.009811 279.140778,181.676498 278.807434,184.085541   C276.897522,197.889069 273.384338,211.173843 266.863403,223.535065   C265.150391,226.782288 266.165863,229.115753 268.059662,231.732895   C278.407501,246.033218 288.661499,260.401428 298.951569,274.743591   C303.587311,281.204803 308.231781,287.659760 313.208679,294.585693   C314.953125,292.376770 316.331726,290.769073 317.560455,289.053986   C330.168427,271.455780 342.458069,253.618134 355.498962,236.347488   C360.180176,230.147980 362.159058,224.849045 356.895386,217.596466  M126.591278,343.977142   C129.457626,344.828735 132.321869,345.687531 135.190704,346.530701   C146.344772,349.808807 157.421585,353.390594 168.679550,356.261719   C178.101273,358.664520 192.551865,353.369385 196.488907,344.539276   C194.969574,343.980530 193.496323,343.358276 191.975357,342.891479   C168.152832,335.580048 144.323074,328.292267 120.497223,320.991669   C100.164032,314.761230 79.847496,308.475983 59.495552,302.307465   C51.094154,299.761047 44.416279,305.498688 45.837029,313.820007   C46.706959,318.915192 50.492260,320.704681 54.810452,322.022156   C78.486160,329.245636 102.153511,336.496490 126.591278,343.977142  M479.660980,350.122955   C480.935059,349.747284 482.212555,349.382782 483.482758,348.994324   C512.890564,340.000977 542.323975,331.089111 571.665710,321.884949   C574.742981,320.919647 578.025879,318.767426 579.882324,316.202484   C582.404236,312.718079 581.562805,308.467621 578.682373,305.124695   C575.479553,301.407623 571.399109,301.012848 566.856384,302.407196   C522.681580,315.966217 478.491852,329.476440 434.312683,343.021149   C432.825165,343.477234 431.404358,344.150970 429.792114,344.786469   C437.568115,355.154785 449.282410,359.029297 461.722931,355.585907   C467.487061,353.990448 473.169922,352.101318 479.660980,350.122955  M514.230469,360.766296   C501.433411,364.679352 488.636383,368.592407 474.844727,372.809570   C476.614532,374.916779 477.580170,376.388153 478.847076,377.523315   C487.729980,385.482513 498.005829,386.909760 509.115417,383.550659   C527.869080,377.880310 546.584961,372.084961 565.314087,366.333374   C572.298279,364.188538 579.354980,362.243225 586.228027,359.785522   C591.223816,357.999176 593.704712,353.432190 592.968628,348.827728   C592.241211,344.277313 588.111206,340.476532 583.199219,340.329987   C581.109131,340.267578 578.938599,340.902191 576.896973,341.523499   C556.246704,347.808044 535.615662,354.155457 514.230469,360.766296  M132.014587,384.921967   C139.951889,383.642334 146.596939,380.316864 151.577164,373.000671   C149.403656,372.170837 147.920593,371.505585 146.378754,371.031311   C131.291046,366.389954 116.193260,361.781342 101.098877,357.161591   C83.463058,351.764069 65.850800,346.287842 48.182426,340.999146   C39.616901,338.435211 32.854519,343.724548 33.897480,351.975311   C34.598003,357.517120 38.848015,359.508301 43.437973,360.917175   C67.582420,368.328125 91.704117,375.818695 115.931900,382.948029   C120.775993,384.373413 126.046631,384.349335 132.014587,384.921967  M55.553722,406.978027   C61.439678,408.724335 67.230385,411.028381 73.239326,412.054443   C78.847931,413.012115 84.803955,413.411713 90.396812,412.602997   C97.051926,411.640625 102.359711,407.585236 106.385246,402.062897   C105.620132,401.350952 105.419083,401.011902 105.139977,400.925751   C81.520020,393.636597 57.938591,386.216644 34.240398,379.190613   C27.417358,377.167694 21.667076,382.458862 21.940630,389.625885   C22.142546,394.916107 25.435186,397.636993 30.060932,399.096588   C38.287868,401.692505 46.543003,404.199066 55.553722,406.978027  M590.414062,379.777740   C567.177063,386.866760 543.940063,393.955750 520.400024,401.137177   C521.091309,402.604187 521.263672,403.266968 521.659119,403.745239   C522.397034,404.637695 523.210022,405.486267 524.086792,406.242889   C532.581909,413.573853 542.283081,415.560394 552.955383,412.360565   C567.587646,407.973450 582.183472,403.461487 596.755188,398.876831   C603.064087,396.891846 606.008179,392.227417 604.665100,386.954620   C603.093750,380.785767 598.246948,378.096130 590.414062,379.777740  z"/>

<path xmlns="http://www.w3.org/2000/svg" fill="#0ea5e9" opacity="1.000000" stroke="none" d=" M485.878235,202.898361   C470.035156,215.330933 449.652771,214.912277 434.763977,202.078018   C420.340454,189.644806 417.042603,169.289307 426.682556,152.196304   C435.247955,137.008682 455.006165,128.921082 471.474976,134.412720   C464.597778,139.870728 459.673004,146.431488 461.788147,155.239502   C462.810577,159.497238 465.291595,164.062225 468.476990,167.016541   C477.130707,175.042404 486.418549,173.265778 498.396545,162.283035   C503.737640,171.224579 499.045746,193.045731 485.878235,202.898361  z"/>

<path xmlns="http://www.w3.org/2000/svg" fill="#0ea5e9" opacity="1.000000" stroke="none" d=" M126.782272,165.951096   C130.876755,141.405991 155.980560,127.742844 176.722244,134.491562   C169.894974,139.601379 165.090820,145.885406 166.889267,154.343307   C167.832382,158.778610 170.134308,163.636368 173.336517,166.742645   C181.943481,175.091751 191.096558,173.405716 203.675079,162.242386   C208.396011,171.539017 204.549301,189.847427 194.290100,200.112442   C182.626968,211.782181 164.185745,215.366760 149.552750,208.478943   C133.290573,200.824249 124.521912,184.648666 126.782272,165.951096  z"/>
</svg>